<svg xmlns="http://www.w3.org/2000/svg" width="1280" height="720" viewBox="0 0 1280 720">
  <rect width="1280" height="720" fill="#0f172a"/>
  <text x="640" y="96" text-anchor="middle" fill="#fff" font-family="-apple-system, BlinkMacSystemFont, sans-serif" font-size="40" font-weight="700">Understood locally by qwen3-vl:4b</text>
  <text x="640" y="139" text-anchor="middle" fill="#94a3b8" font-family="-apple-system, BlinkMacSystemFont, sans-serif" font-size="23">The image stays on your Mac.</text>
  <rect x="104" y="205" width="286" height="286" rx="28" fill="#1e293b" stroke="#334155" stroke-width="2"/>
  <g transform="translate(125 226)">
    <rect width="244" height="244" rx="18" fill="#f9a8d4"/>
    <circle cx="185" cy="58" r="27" fill="#fde68a"/>
    <path d="M0 132 54 59l46 72 35-52 57 68 27-36 25 33v100H0Z" fill="#6366f1"/>
    <path d="M0 164 62 99l43 72 41-61 50 72 27-38 21 29v71H0Z" fill="#312e81"/>
    <path d="M0 177c52-19 84-14 124 8 43 23 76 20 120 0v59H0Z" fill="#38bdf8"/>
    <path d="m26 199 15-42 16 42H47v28H36v-28Zm177 2 14-38 15 38h-9v28h-11v-28Z" fill="#0f3d3e"/>
  </g>
  <path d="M420 348h165" stroke="#8b5cf6" stroke-width="8" stroke-linecap="round"/>
  <path d="m563 326 24 22-24 22" fill="none" stroke="#8b5cf6" stroke-width="8" stroke-linecap="round" stroke-linejoin="round"/>
  <rect x="616" y="205" width="280" height="286" rx="28" fill="#312e81" stroke="#6366f1" stroke-width="2"/>
  <text x="756" y="295" text-anchor="middle" fill="#c4b5fd" font-family="ui-monospace, SFMono-Regular, monospace" font-size="23">OLLAMA</text>
  <circle cx="756" cy="364" r="46" fill="#8b5cf6"/>
  <path d="M738 364h36M756 346v36" stroke="#fff" stroke-width="8" stroke-linecap="round"/>
  <text x="756" y="443" text-anchor="middle" fill="#fff" font-family="-apple-system, BlinkMacSystemFont, sans-serif" font-size="22">Vision analysis</text>
  <path d="M925 348h126" stroke="#22c55e" stroke-width="8" stroke-linecap="round"/>
  <path d="m1029 326 24 22-24 22" fill="none" stroke="#22c55e" stroke-width="8" stroke-linecap="round" stroke-linejoin="round"/>
  <rect x="1078" y="248" width="112" height="200" rx="20" fill="#052e2b" stroke="#22c55e" stroke-width="2"/>
  <path d="m1107 349 20 20 43-52" fill="none" stroke="#4ade80" stroke-width="11" stroke-linecap="round" stroke-linejoin="round"/>
  <rect x="289" y="560" width="702" height="72" rx="18" fill="#1e293b"/>
  <text x="640" y="605" text-anchor="middle" fill="#cbd5e1" font-family="ui-monospace, SFMono-Regular, monospace" font-size="24">{ "filename": "mountains-sunset-lake-trees" }</text>
</svg>
