<svg xmlns="http://www.w3.org/2000/svg" width="1280" height="720" viewBox="0 0 1280 720">
  <rect width="1280" height="720" fill="#0f172a"/>
  <text x="90" y="105" fill="#a78bfa" font-family="-apple-system, sans-serif" font-size="20" font-weight="700">04  HUMAN CONTROL WHEN YOU WANT IT</text>
  <text x="90" y="169" fill="#fff" font-family="-apple-system, sans-serif" font-size="44" font-weight="700">Review. Edit. Approve. Undo.</text>
  <g transform="translate(90 265)">
    <rect width="230" height="210" rx="22" fill="#1e293b" stroke="#334155" stroke-width="2"/>
    <circle cx="115" cy="67" r="34" fill="#7c3aed"/><path d="M98 67h34M115 50v34" stroke="#fff" stroke-width="6" stroke-linecap="round"/>
    <text x="115" y="137" text-anchor="middle" fill="#fff" font-family="-apple-system, sans-serif" font-size="24" font-weight="700">Review</text>
    <text x="115" y="170" text-anchor="middle" fill="#94a3b8" font-family="-apple-system, sans-serif" font-size="17">See the evidence</text>
    <path d="M250 105h70" stroke="#475569" stroke-width="4"/>
    <rect x="340" width="230" height="210" rx="22" fill="#1e293b" stroke="#334155" stroke-width="2"/>
    <circle cx="455" cy="67" r="34" fill="#2563eb"/><path d="m440 77 30-30M443 50l27 27" stroke="#fff" stroke-width="5" stroke-linecap="round"/>
    <text x="455" y="137" text-anchor="middle" fill="#fff" font-family="-apple-system, sans-serif" font-size="24" font-weight="700">Edit</text>
    <text x="455" y="170" text-anchor="middle" fill="#94a3b8" font-family="-apple-system, sans-serif" font-size="17">Keep final say</text>
    <path d="M590 105h70" stroke="#475569" stroke-width="4"/>
    <rect x="680" width="230" height="210" rx="22" fill="#1e293b" stroke="#334155" stroke-width="2"/>
    <circle cx="795" cy="67" r="34" fill="#22c55e"/><path d="m778 67 12 12 23-28" fill="none" stroke="#fff" stroke-width="6" stroke-linecap="round" stroke-linejoin="round"/>
    <text x="795" y="137" text-anchor="middle" fill="#fff" font-family="-apple-system, sans-serif" font-size="24" font-weight="700">Approve</text>
    <text x="795" y="170" text-anchor="middle" fill="#94a3b8" font-family="-apple-system, sans-serif" font-size="17">Safe rename</text>
    <path d="M930 105h70" stroke="#475569" stroke-width="4"/>
    <rect x="1020" width="170" height="210" rx="22" fill="#1e293b" stroke="#334155" stroke-width="2"/>
    <circle cx="1105" cy="67" r="34" fill="#f59e0b"/><path d="M1121 58a24 24 0 1 0 3 24M1121 58v18h-18" fill="none" stroke="#fff" stroke-width="5" stroke-linecap="round" stroke-linejoin="round"/>
    <text x="1105" y="137" text-anchor="middle" fill="#fff" font-family="-apple-system, sans-serif" font-size="24" font-weight="700">Undo</text>
    <text x="1105" y="170" text-anchor="middle" fill="#94a3b8" font-family="-apple-system, sans-serif" font-size="17">Never overwrite</text>
  </g>
  <text x="640" y="590" text-anchor="middle" fill="#cbd5e1" font-family="-apple-system, sans-serif" font-size="22">One persisted pipeline powers automatic and reviewed renames.</text>
</svg>
