<svg xmlns="http://www.w3.org/2000/svg" width="800" height="600" viewBox="0 0 800 600">
  <rect width="800" height="600" fill="#d6b184"/>
  <path d="M0 105h800M0 300h800M205 0v600M560 0v600" stroke="#9a7048" stroke-width="5" opacity=".45"/>
  <g transform="rotate(-7 420 300)"><rect x="245" y="125" width="390" height="290" rx="18" fill="#334155"/><rect x="267" y="147" width="346" height="225" rx="6" fill="#dbeafe"/><path d="m398 372 78 0 58 92H340Z" fill="#64748b"/><rect x="319" y="457" width="238" height="20" rx="10" fill="#475569"/></g>
  <g><ellipse cx="180" cy="425" rx="104" ry="39" fill="#7f1d1d" opacity=".28"/><rect x="95" y="282" width="154" height="151" rx="35" fill="#dc2626"/><ellipse cx="172" cy="286" rx="77" ry="25" fill="#f87171"/><ellipse cx="172" cy="290" rx="59" ry="16" fill="#451a03"/><path d="M245 320c75-4 77 91 8 91" fill="none" stroke="#dc2626" stroke-width="28"/></g>
  <rect x="585" y="420" width="145" height="95" rx="12" fill="#fef3c7" transform="rotate(8 657 467)"/><path d="m620 455 18 18 42-47" fill="none" stroke="#16a34a" stroke-width="9" stroke-linecap="round" stroke-linejoin="round"/>
</svg>
